<svg xmlns="http://www.w3.org/2000/svg" width="200" height="200" viewBox="0 20 100 100">
    <path d="M10,40 L10,80 Q10,97 30,97 L70,97 Q90,97 90,80 L90,40 " fill="none" stroke="white" stroke-width="4"/>
    <path d="
        M18,70 L18,50
        Q25,50 28,53
        31,55 34,55
        38,55 41,53
        44,50 50,50
        56,50 59,53
        62,55 65,55
        68,55 71,53
        75,50 82,50
        L82,75
        Q82,89 62,89
        L38,89
        Q18,89 18,75
        L18,70
    " fill="white" stroke="white" stroke-width="4"/>
</svg>
