<?xml version="1.0" encoding="UTF-8" standalone="no" ?>
<!DOCTYPE svg PUBLIC "-//W3C//DTD SVG 1.1//EN" "http://www.w3.org/Graphics/SVG/1.1/DTD/svg11.dtd">
<svg xmlns="http://www.w3.org/2000/svg" xmlns:xlink="http://www.w3.org/1999/xlink" version="1.1" width="600" height="600" viewBox="0 0 600 600" xml:space="preserve">
<desc>Created with Fabric.js 5.2.4</desc>
<defs>
</defs>
<g transform="matrix(1 0 0 1 300 310)" id="4f661d12-c67d-483e-992f-0e41a4327948"  >
<path style="stroke-width: 0; stroke-dasharray: none; stroke-linecap: butt; stroke-dashoffset: 0; stroke-linejoin: miter; stroke-miterlimit: 4; fill: #d4d4d4; fill-rule: nonzero; opacity: 1;" vector-effect="non-scaling-stroke"  transform=" translate(-312.07, -312.07)" d="M 312.064 0 C 203.478 0 115.439 88.029 115.439 196.566 C 115.439 305.2 312.06399999999996 624.138 312.06399999999996 624.138 C 312.06399999999996 624.138 508.698 305.2 508.698 196.566 C 508.698 88.029 420.698 0 312.064 0 z M 312.074 348.678 C 228.37300000000002 348.678 160.26500000000001 280.57 160.26500000000001 196.869 C 160.26500000000001 113.148 228.383 45.06 312.074 45.06 C 395.775 45.06 463.88300000000004 113.148 463.88300000000004 196.869 C 463.883 280.57 395.775 348.678 312.074 348.678 z" stroke-linecap="round" />
</g>
<g transform="matrix(12.29 0 0 12.29 300 200)" id="b9d222ea-4eb4-4d09-8292-c599d39bee84"  >
<path style="stroke-width: 0; stroke-dasharray: none; stroke-linecap: butt; stroke-dashoffset: 0; stroke-linejoin: miter; stroke-miterlimit: 4; fill: rgb(255,1,1); fill-rule: nonzero; opacity: 1;" vector-effect="non-scaling-stroke"  transform=" translate(-12, -11.75)" d="M 12.579 2.393 C 12.233823044010851 2.14540732491511 11.768581478182016 2.147828356480568 11.426 2.399 C 9.592 3.728 4 8.252 4 14 C 4 17.247 5.948 20.043 8.734 21.296 C 8.257346569781694 20.625206050863476 8.000859813115616 19.822898703036078 7.999999999999999 19 C 7.983 15.779 11.558 12.107 11.71 12 C 11.883073755954932 11.875971533901312 12.11592624404507 11.875971533901312 12.289000000000001 12 C 12.441 12.107 16 14.974 16 19.002 C 16 19.855999999999998 15.725 20.645 15.267 21.296 C 18.052 20.043 20 17.248 20 14.005 C 20 8.144000000000002 14.418 3.6980000000000004 12.579 2.3930000000000007 z" stroke-linecap="round" />
</g>
</svg>