<svg xmlns="http://www.w3.org/2000/svg" viewBox="0 0 100 125">
    <g transform="translate(0,-952.36216) " >
        <path d="m 32.674484,957.36214 -17.317836,29.99639 17.317836,29.99587 17.326031,30.0077 17.324825,-30.0077 17.318078,-29.99587 -17.318078,-29.99639 -34.63471,0 -0.01687,0 z m 4.942101,8.56858 24.751713,0 12.377182,21.42781 -12.377182,21.42737 -24.751713,0 -12.374772,-21.42737 12.374772,-21.42781 z"
              style="opacity:1;fill:#d4d4d4;fill-opacity:1;stroke:#000;stroke-width:2;stroke-linecap:butt;stroke-linejoin:miter;stroke-miterlimit:4;stroke-dasharray:none;stroke-dashoffset:0;stroke-opacity:1"/>
        <path style="" d="m 49.993378,994.87397 -2.642254,4.62388 1.321127,2.31195 2.642254,0 1.321127,-2.31195 z"
              fill="#77d9e0" fill-rule="evenodd" stroke="none"/>
        <path style="" d="m 43.363433,990.47265 -2.64222,4.62389 1.321109,2.31194 2.642221,0 1.321109,-2.31194 z"
              fill="#77d9e0" fill-rule="evenodd" stroke="none"/>
        <path style="" d="m 56.623215,990.47265 -2.64222,4.62389 1.32111,2.31194 2.64222,0 1.32111,-2.31194 z"
              fill="#77d9e0" fill-rule="evenodd" stroke="none"/>
        <path d="m 39.975809,987.42548 20.035472,0 2.504434,-3.75665 -2.504434,-5.00886 -3.756651,1.25221 -2.504434,-5.00887 -5.008868,0 -2.504434,2.50444 -5.003107,-0.0299 -3.762412,6.29098 z"
              style="" fill="#77d9e0" fill-rule="evenodd" stroke="none"/>
    </g>
</svg>